<?xml version="1.0" encoding="UTF-8" standalone="no"?>
<svg
   xmlns:dc="http://purl.org/dc/elements/1.1/"
   xmlns:cc="http://creativecommons.org/ns#"
   xmlns:rdf="http://www.w3.org/1999/02/22-rdf-syntax-ns#"
   xmlns:svg="http://www.w3.org/2000/svg"
   xmlns="http://www.w3.org/2000/svg"
   xmlns:sodipodi="http://sodipodi.sourceforge.net/DTD/sodipodi-0.dtd"
   xmlns:inkscape="http://www.inkscape.org/namespaces/inkscape"
   width="360.42545mm"
   height="322.55054mm"
   viewBox="0 0 360.42545 322.55054"
   version="1.1"
   id="svg8"
   inkscape:version="1.0.1 (c497b03c, 2020-09-10)"
   sodipodi:docname="cat.svg">
  <defs
     id="defs2" />
  <sodipodi:namedview
     id="base"
     pagecolor="#ffffff"
     bordercolor="#666666"
     borderopacity="1.0"
     inkscape:pageopacity="0.0"
     inkscape:pageshadow="2"
     inkscape:zoom="0.20112977"
     inkscape:cx="322.36841"
     inkscape:cy="652.66074"
     inkscape:document-units="mm"
     inkscape:current-layer="layer1"
     inkscape:document-rotation="0"
     showgrid="false"
     fit-margin-top="0"
     fit-margin-left="0"
     fit-margin-right="0"
     fit-margin-bottom="0"
     inkscape:window-width="1434"
     inkscape:window-height="855"
     inkscape:window-x="0"
     inkscape:window-y="23"
     inkscape:window-maximized="0" />
  <metadata
     id="metadata5">
    <rdf:RDF>
      <cc:Work
         rdf:about="">
        <dc:format>image/svg+xml</dc:format>
        <dc:type
           rdf:resource="http://purl.org/dc/dcmitype/StillImage" />
        <dc:title />
      </cc:Work>
    </rdf:RDF>
  </metadata>
  <g
     inkscape:label="Calque 1"
     inkscape:groupmode="layer"
     id="layer1"
     transform="translate(124.04953,10.694675)">
    <path
       style="fill:#2f7be7;fill-opacity:0.17622952;stroke:#000000;stroke-width:5.068;stroke-linecap:butt;stroke-linejoin:miter;stroke-miterlimit:4;stroke-dasharray:none;stroke-opacity:0"
       d="m 113.96841,-0.48087401 c -4.98575,5.60155601 1.77036,15.20090801 4.67256,22.15375601 2.01206,4.820384 8.06913,7.836301 8.61572,13.042695 0.56344,5.366739 -4.79045,9.764814 -5.89008,15.045089 -0.69907,3.356782 -0.75022,6.874224 -0.38938,10.285667 0.444,4.197664 5.34784,8.703118 3.11504,12.263694 -3.38653,5.400316 -12.56516,1.627497 -18.58938,3.509198 -4.36918,1.364743 -8.550439,3.361476 -12.56097,5.589663 -5.337715,2.965555 -10.153656,6.812137 -15.185792,10.285667 -5.092469,3.515184 -10.600595,6.507079 -15.185791,10.681275 -4.865016,4.42893 -9.096151,9.60107 -12.849511,15.0329 -5.124461,7.41606 -9.469634,15.43298 -13.040421,23.73617 -4.699972,10.92891 -8.994614,22.25387 -10.902611,34.02183 -1.793309,11.06046 -0.218418,22.41806 -0.389392,33.62623 -0.104603,6.85756 -0.997889,13.74088 -0.389381,20.57134 0.370056,4.15385 1.811352,8.14265 2.443854,12.26369 0.704152,4.58779 1.120362,9.2189 1.49994,13.84609 0.259145,3.15895 1.328802,6.43013 0.530286,9.49446 -0.672617,2.58119 -1.713078,6.1673 -4.28318,6.72525 -10.43955,2.26623 -19.1250143,-10.24102 -26.8671664,-17.70824 -12.6937756,-12.24303 -24.3176606,-26.67869 -30.8276166,-43.18537 -3.03493,-7.69537 -2.772582,-16.37145 -3.287921,-24.64503 -0.567179,-9.10574 2.54575,-18.5571 0.224251,-27.37093 -3.143619,-11.93509 -8.382282,-25.07611 -18.48303,-31.95614 -13.205755,-8.99496 -31.987278,-2.21186 -47.218868,-6.84263 -4.67246,-1.42054 -8.36891,-6.59884 -13.23889,-6.32964 -2.73394,0.15111 -6.08261,1.73388 -7.00883,4.35164 -1.34688,3.80664 1.57236,8.18608 3.89379,11.47248 4.20806,5.95724 10.4287,10.73474 17.13269,13.4505 9.573177,3.87806 23.082541,-3.81945 30.760963,3.16482 12.153269,11.05457 7.270346,32.32162 10.263927,48.61317 1.855545,10.09822 1.010828,20.89764 4.767294,30.43505 4.517942,11.47076 12.153822,21.73257 20.703769,30.5184 4.691935,4.82137 11.074313,7.5857 16.353926,11.73261 12.2318696,9.60756 21.1239194,24.46075 35.433507,30.40909 12.769697,5.30824 27.481081,3.50506 41.274214,3.16484 13.337196,-0.329 26.421227,-3.90387 39.716664,-5.02434 6.214156,-0.5237 12.520946,0.11619 18.690226,-0.79119 6.36113,-0.93559 12.31259,-3.9519 18.6902,-4.76759 3.60488,-0.46106 7.55383,1.36107 10.90261,-0.0508 0.34099,-0.14376 0.41393,-0.85318 0.77876,-0.79121 6.59564,1.1203 3.16938,14.19686 8.56635,18.15037 1.58493,1.16103 3.89828,0.49523 5.8407,0.79119 2.3423,0.35685 4.64081,1.13773 7.00883,1.18681 2.09239,0.0434 4.22702,-0.17505 6.23005,-0.79122 2.49995,-0.76904 5.38858,-1.47888 7.00884,-3.56042 1.40605,-1.80638 -0.51562,-5.79397 1.5575,-6.72525 3.66652,-1.64704 6.77121,4.47279 10.51325,5.93406 3.23275,1.26238 6.70304,2.92312 10.12387,2.37361 2.24261,-0.36025 4.66765,-1.58541 5.8407,-3.56042 1.2089,-2.03541 0.65589,-4.75904 0.38937,-7.12085 -0.3696,-3.27525 -1.30836,-6.52888 -2.72566,-9.49447 -0.97536,-2.0409 -2.74197,-3.59482 -3.89379,-5.53844 -1.34729,-2.27352 -2.60973,-4.6276 -3.50441,-7.12084 -2.28595,-6.37048 -3.95264,-13.03909 -4.67255,-19.78015 -0.78422,-7.34287 -0.20183,-14.79508 0.4227,-22.15375 0.14666,-1.72803 0.57382,-3.42093 0.77875,-5.14284 1.06357,-8.93674 2.29046,-17.89927 2.33629,-26.90098 0.0276,-5.42285 -2.42578,-10.93176 -1.24239,-16.21971 1.26353,-5.64607 5.14262,-10.40403 8.56634,-15.0329 2.80782,-3.79619 7.42953,-6.13571 9.70116,-10.28567 2.53983,-4.63994 2.81429,-10.23382 3.8938,-15.42851 1.14165,-5.49372 2.26981,-11.01961 2.72565,-16.61531 0.34258,-4.20538 0.52681,-8.47361 0,-12.65929 -0.85053,-6.75756 -4.12738,-13.03404 -5.06194,-19.780133 -0.57905,-4.179914 0.42872,-8.506386 -0.31513,-12.659289 -0.56587,-3.1593 -2.5885,-5.93255 -3.11503,-9.098861 -0.77839,-4.680897 1.07354,-9.621461 0,-14.2417 -0.93353,-4.017676 -4.6249,-7.035062 -5.45131,-11.076878 -0.9782,-4.784085 0.75338,-9.751146 0.77875,-14.637295 0.0315,-6.071555 -0.0793,-12.167822 -0.77875,-18.197733 -0.47971,-4.135133 -0.10534,-8.7709045 -2.33629,-12.2636834 -0.86244,-1.35024686 -2.30965,-2.7427986 -3.89379,-2.76921698 -3.56349,-0.0594636 -6.30343,3.51533178 -8.95571,5.93403918 -2.7456,2.5038299 -3.84674,6.7721302 -7.00885,8.7032662 -3.97059,2.424881 -9.01809,2.305421 -13.62827,2.769217 -3.87484,0.389817 -7.7879,0.05069 -11.68138,0 -5.06316,-0.06597 -10.24124,0.713385 -15.18579,-0.395605 -4.14389,-0.929407 -7.82195,-3.350146 -11.68138,-5.142839 -3.53731,-1.6430582 -7.24233,-3.0046454 -10.51323,-5.1428288 -2.5575,-1.6718332 -4.21096,-4.7231619 -7.00882,-5.93403911 -1.08131,-0.46797722 -2.71611,-1.28128679 -3.50441,-0.39560524 z"
       id="path847-0"
       sodipodi:nodetypes="aaaaaaaaaaaaaaaaaaaaaaaaaaaaaaaaaaaaaaaaaaaaaaaaaaaaaaaaaaaaaaaaaaaaaaaaaaaaaaaaaaa" />
  </g>
</svg>
