<?xml version="1.0" encoding="UTF-8" standalone="no"?>
<svg
   xmlns:dc="http://purl.org/dc/elements/1.1/"
   xmlns:cc="http://creativecommons.org/ns#"
   xmlns:rdf="http://www.w3.org/1999/02/22-rdf-syntax-ns#"
   xmlns:svg="http://www.w3.org/2000/svg"
   xmlns="http://www.w3.org/2000/svg"
   xmlns:sodipodi="http://sodipodi.sourceforge.net/DTD/sodipodi-0.dtd"
   xmlns:inkscape="http://www.inkscape.org/namespaces/inkscape"
   width="140.48148mm"
   height="114.37723mm"
   viewBox="0 0 140.48148 114.37723"
   version="1.1"
   id="svg8"
   inkscape:version="1.0.1 (c497b03c, 2020-09-10)"
   sodipodi:docname="euler_line.svg">
  <defs
     id="defs2">
    <marker
       style="overflow:visible"
       id="marker1240"
       refX="0"
       refY="0"
       orient="auto"
       inkscape:stockid="Arrow2Lend"
       inkscape:isstock="true">
      <path
         transform="matrix(-1.1,0,0,-1.1,-1.1,0)"
         d="M 8.7185878,4.0337352 -2.2072895,0.01601326 8.7185884,-4.0017078 c -1.7454984,2.3720609 -1.7354408,5.6174519 -6e-7,8.035443 z"
         style="fill:#000000;fill-opacity:1;fill-rule:evenodd;stroke:#000000;stroke-width:0.625;stroke-linejoin:round;stroke-opacity:1"
         id="path1238" />
    </marker>
    <marker
       style="overflow:visible"
       id="Arrow2Lend"
       refX="0"
       refY="0"
       orient="auto"
       inkscape:stockid="Arrow2Lend"
       inkscape:isstock="true"
       inkscape:collect="always">
      <path
         transform="matrix(-1.1,0,0,-1.1,-1.1,0)"
         d="M 8.7185878,4.0337352 -2.2072895,0.01601326 8.7185884,-4.0017078 c -1.7454984,2.3720609 -1.7354408,5.6174519 -6e-7,8.035443 z"
         style="fill:#000000;fill-opacity:1;fill-rule:evenodd;stroke:#000000;stroke-width:0.625;stroke-linejoin:round;stroke-opacity:1"
         id="path927" />
    </marker>
    <marker
       style="overflow:visible"
       id="Arrow1Lend"
       refX="0"
       refY="0"
       orient="auto"
       inkscape:stockid="Arrow1Lend"
       inkscape:isstock="true">
      <path
         transform="matrix(-0.8,0,0,-0.8,-10,0)"
         style="fill:#000000;fill-opacity:1;fill-rule:evenodd;stroke:#000000;stroke-width:1pt;stroke-opacity:1"
         d="M 0,0 5,-5 -12.5,0 5,5 Z"
         id="path909" />
    </marker>
    <clipPath
       id="ozRBcknzMqvb">
      <path
         fill="none"
         stroke="none"
         d="M 0,0 H 79 V 103 H 0 Z"
         id="path2104" />
    </clipPath>
    <clipPath
       id="zfcnAopvewaA">
      <path
         fill="none"
         stroke="none"
         d="M 0,0 H 82 V 103 H 0 Z"
         id="path2138" />
    </clipPath>
    <clipPath
       id="IJiqadmNKThv">
      <path
         fill="none"
         stroke="none"
         d="M 0,0 H 84 V 103 H 0 Z"
         id="path2172" />
    </clipPath>
    <clipPath
       id="AKPhEbconUKx">
      <path
         fill="none"
         stroke="none"
         d="M 0,0 H 79 V 103 H 0 Z"
         id="path3470" />
    </clipPath>
    <clipPath
       id="uWTPOfNCyepX">
      <path
         fill="none"
         stroke="none"
         d="M 0,0 H 77 V 103 H 0 Z"
         id="path3504" />
    </clipPath>
    <clipPath
       id="XuXzgvyIikWw">
      <path
         fill="none"
         stroke="none"
         d="M 0,0 H 79 V 103 H 0 Z"
         id="path3538" />
    </clipPath>
  </defs>
  <sodipodi:namedview
     id="base"
     pagecolor="#ffffff"
     bordercolor="#666666"
     borderopacity="1.0"
     inkscape:pageopacity="0.0"
     inkscape:pageshadow="2"
     inkscape:zoom="1.4055699"
     inkscape:cx="184.72965"
     inkscape:cy="185.51031"
     inkscape:document-units="mm"
     inkscape:current-layer="layer1"
     inkscape:document-rotation="0"
     showgrid="false"
     inkscape:window-width="1434"
     inkscape:window-height="855"
     inkscape:window-x="11"
     inkscape:window-y="23"
     inkscape:window-maximized="0"
     fit-margin-top="0"
     fit-margin-left="0"
     fit-margin-right="0"
     fit-margin-bottom="0" />
  <metadata
     id="metadata5">
    <rdf:RDF>
      <cc:Work
         rdf:about="">
        <dc:format>image/svg+xml</dc:format>
        <dc:type
           rdf:resource="http://purl.org/dc/dcmitype/StillImage" />
        <dc:title />
      </cc:Work>
    </rdf:RDF>
  </metadata>
  <g
     inkscape:label="Calque 1"
     inkscape:groupmode="layer"
     id="layer1"
     transform="translate(-91.384147,38.556665)">
    <path
       style="fill:none;stroke:#000000;stroke-width:0.566;stroke-linecap:butt;stroke-linejoin:miter;stroke-miterlimit:4;stroke-dasharray:none;stroke-opacity:1"
       d="m 122.94153,36.613113 58.5654,-40.0062541"
       id="path849"
       sodipodi:nodetypes="cc" />
    <path
       style="fill:none;stroke:#000000;stroke-width:0.583;stroke-linecap:butt;stroke-linejoin:miter;stroke-miterlimit:4;stroke-dasharray:none;stroke-opacity:1"
       d="m 187.11043,36.219604 -5.6035,-39.6127451"
       id="path851"
       sodipodi:nodetypes="cc" />
    <path
       style="fill:none;stroke:#000000;stroke-width:0.231;stroke-linecap:butt;stroke-linejoin:miter;stroke-miterlimit:4;stroke-dasharray:none;stroke-opacity:1;marker-end:url(#Arrow2Lend)"
       d="m 154.99862,75.820559 0.001,-113.82389"
       id="path853" />
    <path
       style="fill:none;stroke:#000000;stroke-width:0.271;stroke-linecap:butt;stroke-linejoin:miter;stroke-miterlimit:4;stroke-dasharray:none;stroke-opacity:1;marker-end:url(#marker1240)"
       d="M 91.384521,20.290474 231.24507,20.57261"
       id="path855" />
    <ellipse
       style="fill:none;stroke:#000000;stroke-width:0.45;stroke-opacity:1;stroke-miterlimit:4;stroke-dasharray:none"
       id="path857"
       cx="154.70311"
       cy="20.500854"
       rx="35.820854"
       ry="35.675804" />
    <path
       style="fill:none;stroke:#0095b9;stroke-width:0.708917;stroke-linecap:butt;stroke-linejoin:miter;stroke-miterlimit:4;stroke-dasharray:none;stroke-opacity:1"
       d="M 101.27551,4.5983582 223.71224,40.727077"
       id="path859"
       sodipodi:nodetypes="cc" />
    <path
       style="fill:none;stroke:#46b600;stroke-width:0.33197800000000000px;stroke-linecap:butt;stroke-linejoin:miter;stroke-opacity:1"
       d="M 208.42335,67.076183 146.60729,-22.08013"
       id="path861" />
    <path
       style="fill:none;stroke:#46b600;stroke-width:0.332;stroke-linecap:butt;stroke-linejoin:miter;stroke-opacity:1;stroke-miterlimit:4;stroke-dasharray:none"
       d="m 181.40743,59.323459 v -85.27995"
       id="path863" />
    <ellipse
       style="fill:#000000;fill-opacity:1;stroke:#000000;stroke-width:0.414738"
       id="path865"
       cx="155.00934"
       cy="20.511744"
       rx="0.61731917"
       ry="0.54720181" />
    <ellipse
       style="fill:#000000;fill-opacity:1;stroke:#000000;stroke-width:0.414738"
       id="path865-3"
       cx="164.00749"
       cy="23.158827"
       rx="0.61731917"
       ry="0.54720181" />
    <ellipse
       style="fill:#000000;fill-opacity:1;stroke:#000000;stroke-width:0.414738"
       id="path865-1"
       cx="181.45947"
       cy="28.335621"
       rx="0.61731917"
       ry="0.54720181" />
    <ellipse
       style="fill:#000000;fill-opacity:1;stroke:#000000;stroke-width:0.414738"
       id="path865-7"
       cx="122.8995"
       cy="36.778873"
       rx="0.61731917"
       ry="0.54720181" />
    <ellipse
       style="fill:#000000;fill-opacity:1;stroke:#000000;stroke-width:0.414738"
       id="path865-4"
       cx="186.91968"
       cy="36.338051"
       rx="0.61731917"
       ry="0.54720181" />
    <ellipse
       style="fill:#000000;fill-opacity:1;stroke:#000000;stroke-width:0.414738"
       id="path865-8"
       cx="181.50668"
       cy="-3.2693825"
       rx="0.61731917"
       ry="0.54720181" />
    <path
       style="fill:none;stroke:#000000;stroke-width:0.595;stroke-linecap:butt;stroke-linejoin:miter;stroke-miterlimit:4;stroke-dasharray:none;stroke-opacity:1"
       d="m 123.0511,36.745232 64.05933,-0.525628"
       id="path1362"
       sodipodi:nodetypes="cc" />
    <path
       fill="#000000"
       stroke="none"
       paint-order="stroke fill markers"
       d="m 165.25123,24.994129 -0.44838,1.814622 q -0.0354,0.128093 -0.071,0.135201 l -0.01,0.0072 h -0.0499 q -0.1068,0 -0.1068,-0.07109 l 0.0209,-0.348689 v -0.01417 q 0,-0.882401 -0.55515,-1.216857 l -0.01,-0.0072 q -0.24902,-0.149451 -0.5835,-0.149451 -0.76137,0 -1.44456,0.576408 -0.19221,0.156554 -0.3345,0.341579 -0.68318,0.83971 -0.80411,2.063683 -0.0145,0.149441 -0.0145,0.256179 0,0.974914 0.74011,1.337834 0.31308,0.156561 0.69026,0.156561 0.60485,0 1.00336,-0.306002 0.2846,-0.213479 0.36993,-0.555054 0.14955,-0.555058 0.14955,-0.647566 0,-0.09248 -0.10667,-0.120979 -0.0361,-0.0072 -0.11392,-0.01419 -0.16373,-0.01422 -0.37716,-0.01422 -0.19219,0 -0.20632,-0.04266 -0.01,-0.0072 -0.01,-0.03561 0,-0.142321 0.14947,-0.142321 l 0.98909,0.02136 h 0.01 l 0.74009,-0.02136 h 0.01 q 0.0927,0 0.0927,0.07823 0,0.142329 -0.11386,0.142329 -0.32736,0.0072 -0.39134,0.07109 -0.0424,0.04982 -0.0998,0.27042 0,-0.0142 -0.071,0.277524 -0.0143,0.04982 -0.0211,0.08542 l -0.1352,0.547942 q -0.0995,0.412735 -0.12092,0.434083 0,0.02853 -0.0502,0.02853 -0.0789,0 -0.24194,-0.27041 -0.0501,-0.09249 -0.0789,-0.170785 -0.24186,0.270408 -0.54786,0.40562 l -0.0712,0.02848 q -0.41277,0.170787 -0.88956,0.170787 -0.96064,0 -1.50863,-0.668915 -0.43406,-0.526595 -0.43406,-1.280908 0,-1.060306 0.77568,-1.985402 0.71868,-0.861054 1.70077,-1.138581 0.36288,-0.09963 0.71153,-0.09963 0.7757,0 1.1813,0.633334 l 0.49808,-0.547941 q 0.0854,-0.08541 0.10686,-0.08541 0.0786,0 0.0786,0.07107 z"
       id="path2109"
       style="stroke-width:7.11599" />
    <path
       fill="#000000"
       stroke="none"
       paint-order="stroke fill markers"
       d="m 179.37717,29.40592 -0.96077,3.842718 -0.0209,0.120973 q 0,0.120979 0.33444,0.128095 h 0.01 0.12095 q 0.18494,0 0.19923,0.07822 0,0.142329 -0.14234,0.142329 l -0.45537,-0.01422 h -0.01 l -0.44116,-0.0072 h -0.0147 l -0.89662,0.02137 h -0.01 q -0.0997,0 -0.0997,-0.07824 0,-0.128091 0.0997,-0.142319 v 0 0 h 0.0714 q 0.44822,0 0.54795,-0.07109 l 0.01,-0.0072 q 0.057,-0.04981 0.0927,-0.156559 l 0.49102,-1.964059 h -2.17047 l -0.48392,1.949825 -0.0207,0.120975 q 0,0.120974 0.32729,0.128088 v 0 0 h 0.13529 q 0.185,0 0.19924,0.07823 0,0.142321 -0.14229,0.142321 l -0.45546,-0.0142 h -0.01 l -0.44139,-0.0072 h -0.0138 l -0.8967,0.02136 h -0.01 q -0.0998,0 -0.0998,-0.07825 0,-0.128093 0.10681,-0.142324 h 0.0855 q 0.46262,0 0.55515,-0.09962 0.0422,-0.04983 0.0856,-0.199255 0,-0.0072 0.01,-0.03561 l 0.95368,-3.821371 q 0.029,-0.113861 0.029,-0.135207 0,-0.0854 -0.11388,-0.106738 h -0.01 -0.01 q -0.0208,0 -0.0641,-0.0072 -0.12108,-0.0142 -0.27049,-0.0142 -0.18508,0 -0.1992,-0.07823 0,-0.142316 0.13517,-0.142316 l 0.91081,0.02135 h 0.01 l 0.90385,-0.02135 h 0.01 q 0.0998,0 0.0998,0.07822 0,0.120974 -0.0998,0.135202 h -0.01 v 0 0 l -0.01,0.0072 h -0.12818 q -0.43421,0 -0.51956,0.120972 h -0.01 v 0.0072 q -0.0359,0.04982 -0.071,0.199252 l -0.41984,1.672343 h 2.1705 l 0.4269,-1.736339 q 0.029,-0.120975 0.029,-0.135209 0,-0.08541 -0.11384,-0.106746 -0.0208,0 -0.0788,-0.0072 -0.12101,-0.01423 -0.2704,-0.01423 -0.18502,0 -0.19928,-0.07823 0,-0.142321 0.13525,-0.142321 l 0.91087,0.02136 h 0.01 l 0.90376,-0.02136 h 0.01 q 0.0997,0 0.0997,0.07822 0,0.120973 -0.0997,0.135204 h -0.01 q -0.0363,0.0072 -0.13519,0.0072 -0.43408,0 -0.51947,0.113855 -0.0356,0.04983 -0.0789,0.21349 z"
       id="path2143"
       style="stroke-width:7.11599" />
    <path
       fill="#000000"
       stroke="none"
       paint-order="stroke fill markers"
       d="m 153.47073,23.683675 v 0 q 0,1.102999 -0.7828,2.042326 -0.70454,0.853947 -1.65098,1.124362 -0.33448,0.09247 -0.66178,0.09247 -0.88953,0 -1.40185,-0.626222 -0.41989,-0.512363 -0.41989,-1.273791 0,-1.067422 0.7614,-2.020992 0.70441,-0.861044 1.65092,-1.145691 0.34877,-0.106744 0.69036,-0.106744 0.90368,0 1.41602,0.654686 0.3986,0.51236 0.3986,1.259563 m -3.05286,3.074174 v 0 q 0.66888,0 1.28792,-0.597761 0.12817,-0.120973 0.23483,-0.256178 0.69741,-0.868171 0.86106,-2.070801 0.0361,-0.23483 0.0361,-0.42697 0,-0.974914 -0.65461,-1.323601 -0.01,0 -0.0142,-0.0072 -0.25623,-0.128092 -0.5552,-0.128092 -0.66882,0 -1.29497,0.576411 -0.25626,0.227714 -0.45542,0.533703 -0.54094,0.818362 -0.63337,1.956947 -0.0145,0.128089 -0.0145,0.227712 0,0.910867 0.54792,1.30937 0.28473,0.206376 0.6547,0.206376 z"
       id="path2177"
       style="stroke-width:7.11599" />
    <path
       fill="#000000"
       stroke="none"
       paint-order="stroke fill markers"
       d="m 183.99025,-4.9591633 1.01546,-4.0692989 q 0.0308,-0.121239 0.0308,-0.143979 0,-0.09094 -0.12124,-0.113668 h -0.009 -0.009 q -0.023,0 -0.0688,-0.0076 -0.12881,-0.01515 -0.28793,-0.01515 -0.19704,0 -0.21216,-0.08337 0,-0.136395 0.11363,-0.15155 h 0.009 0.009 0.0909 2.54615 q 0.87142,0 1.2428,0.515298 0.16668,0.242482 0.16668,0.530436 0,0.6138088 -0.68201,1.0684822 -0.009,0 -0.0153,0.00757 -0.40156,0.2576513 -0.8866,0.348576 0.77292,0.090936 1.06084,0.606226 0.11372,0.2121824 0.11372,0.4622507 0,0.5531888 -0.53041,1.0381633 l -0.009,0.00757 q -0.65178,0.5910985 -1.55352,0.5910985 h -2.70515 q -0.18951,0 -0.20467,-0.083366 0,-0.1364008 0.1137,-0.1515524 h 0.091 q 0.49246,0 0.59095,-0.1060911 0.0457,-0.05305 0.0911,-0.2121804 0,-0.00756 0.009,-0.037948 m 1.14427,-2.1824165 h 1.10637 q 0.75018,0 1.23519,-0.5456031 0.34102,-0.3864729 0.34102,-0.8411502 0,-0.553181 -0.4547,-0.719891 -0.15911,-0.06063 -0.37132,-0.06063 h -0.97755 q -0.27276,0 -0.33349,0.07578 v 0 0.0077 h -0.009 v 0.0077 q -0.0308,0.04543 -0.0688,0.197026 l -0.46987,1.8793161 m -0.34097,2.5385668 h 1.0306 q 0.72744,0 1.20484,-0.5456 0.36371,-0.4243594 0.36371,-0.9396569 0,-0.5531828 -0.39397,-0.7805127 -0.19704,-0.1060896 -0.47743,-0.1060896 h -1.43219 l -0.5229,2.1142259 q -0.038,0.1364016 -0.038,0.1742866 0,0.060666 0.0688,0.075786 v 0 0 h 0.0308 q 0.0452,0.00755 0.16663,0.00755 z"
       id="path3475"
       style="stroke-width:7.57881" />
    <path
       fill="#000000"
       stroke="none"
       paint-order="stroke fill markers"
       d="m 194.87484,33.620461 -0.47738,1.932342 q -0.0372,0.136402 -0.0757,0.143978 l -0.009,0.0076 h -0.0528 q -0.11359,0 -0.11359,-0.07576 l 0.023,-0.371325 v -0.01522 q 0,-0.939648 -0.59107,-1.295792 l -0.009,-0.0078 q -0.26524,-0.159134 -0.62136,-0.159134 -0.80326,0 -1.52321,0.598653 -0.1818,0.143979 -0.32582,0.318261 -0.71986,0.841137 -0.88658,2.136953 -0.0302,0.234918 -0.0302,0.409203 0,1.0609 0.80324,1.432209 0.31063,0.143981 0.68195,0.143981 0.71241,0 1.3944,-0.553186 0.53041,-0.447086 0.76529,-1.197289 0.0156,-0.07576 0.0985,-0.07576 0.091,0 0.091,0.07576 0,0.136399 -0.17433,0.484974 -0.23489,0.477412 -0.65918,0.848717 -0.75029,0.651704 -1.63686,0.651704 -0.97,0 -1.55343,-0.666854 -0.50017,-0.568338 -0.50017,-1.409479 0,-1.129101 0.82595,-2.114216 0.76537,-0.916918 1.81113,-1.212457 0.38645,-0.106092 0.7578,-0.106092 0.82598,0 1.25792,0.674435 l 0.53042,-0.583495 q 0.091,-0.09095 0.11372,-0.09095 0.0832,0 0.0832,0.07578 z"
       id="path3509"
       style="stroke-width:7.57881" />
    <path
       fill="#000000"
       stroke="none"
       paint-order="stroke fill markers"
       d="m 117.33278,42.679116 2.63706,-4.425449 q 0.0757,-0.121254 0.197,-0.128833 0.11364,0 0.12884,0.07578 0.01,0.02279 0.0155,0.106077 l 0.46227,4.736159 q 0.0232,0.189436 0.091,0.227334 h 0.009 v 0 0 0 0.0077 q 0.091,0.03796 0.39406,0.03796 0.16668,0 0.17424,0.08336 0,0.151553 -0.13638,0.151553 l -0.84874,-0.02276 h -0.009 l -0.93981,0.02274 h -0.01 q -0.10605,0 -0.10605,-0.08335 0.0602,-0.14398 0.18182,-0.151557 0.5456,0 0.5456,-0.250075 0,0.0077 -0.12121,-1.265504 h -1.90191 l -0.57587,0.969957 q -0.1061,0.18944 -0.1061,0.28038 0,0.234911 0.35617,0.265227 0.12116,0 0.12116,0.09094 0,0.14398 -0.14392,0.14398 l -0.72747,-0.02276 h -0.0307 l -0.63661,0.02272 h -0.0152 q -0.0986,0 -0.0986,-0.08336 0,-0.136405 0.11364,-0.143977 v -0.0077 h 0.0455 q 0.47738,-0.03027 0.78053,-0.409206 0.0758,-0.09852 0.15149,-0.227344 m 0.90942,-1.113948 h 1.73529 l -0.24241,-2.500681 z"
       id="path3543"
       style="stroke-width:7.57881" />
  </g>
</svg>
