<?xml version="1.0" encoding="UTF-8" standalone="no"?>
<svg
   xmlns:dc="http://purl.org/dc/elements/1.1/"
   xmlns:cc="http://creativecommons.org/ns#"
   xmlns:rdf="http://www.w3.org/1999/02/22-rdf-syntax-ns#"
   xmlns:svg="http://www.w3.org/2000/svg"
   xmlns="http://www.w3.org/2000/svg"
   xmlns:sodipodi="http://sodipodi.sourceforge.net/DTD/sodipodi-0.dtd"
   xmlns:inkscape="http://www.inkscape.org/namespaces/inkscape"
   width="170.63348mm"
   height="153.62381mm"
   viewBox="0 0 170.63349 153.62381"
   version="1.1"
   id="svg8"
   inkscape:version="1.0.1 (c497b03c, 2020-09-10)"
   sodipodi:docname="cat.svg">
  <defs
     id="defs2" />
  <sodipodi:namedview
     id="base"
     pagecolor="#ffffff"
     bordercolor="#666666"
     borderopacity="1.0"
     inkscape:pageopacity="0.0"
     inkscape:pageshadow="2"
     inkscape:zoom="0.20112977"
     inkscape:cx="323.67201"
     inkscape:cy="625.13998"
     inkscape:document-units="mm"
     inkscape:current-layer="layer1"
     inkscape:document-rotation="0"
     showgrid="false"
     fit-margin-top="0"
     fit-margin-left="0"
     fit-margin-right="0"
     fit-margin-bottom="0"
     inkscape:window-width="1434"
     inkscape:window-height="855"
     inkscape:window-x="0"
     inkscape:window-y="23"
     inkscape:window-maximized="0" />
  <metadata
     id="metadata5">
    <rdf:RDF>
      <cc:Work
         rdf:about="">
        <dc:format>image/svg+xml</dc:format>
        <dc:type
           rdf:resource="http://purl.org/dc/dcmitype/StillImage" />
        <dc:title></dc:title>
      </cc:Work>
    </rdf:RDF>
  </metadata>
  <g
     inkscape:label="Calque 1"
     inkscape:groupmode="layer"
     id="layer1"
     transform="translate(124.39444,3.4131401)">
    <path
       style="fill:#2f7be7;fill-opacity:0.176229;stroke:#000000;stroke-width:2.46665;stroke-linecap:butt;stroke-linejoin:miter;stroke-miterlimit:4;stroke-dasharray:none;stroke-opacity:0"
       d="m -8.375391,-1.9859316 c -2.426779,2.7264616 0.8616623,7.3987841 2.2742713,10.7829744 0.9792489,2.3462362 3.9274695,3.8141732 4.1935244,6.3483112 0.274213,2.612144 -2.3316373,4.752846 -2.8669793,7.32294 -0.3401211,1.633842 -0.3650601,3.345909 -0.1894492,5.006377 0.2161502,2.043143 2.6029791,4.236068 1.5162231,5.969118 -1.6483596,2.628512 -6.1159492,0.792173 -9.0481043,1.708066 -2.126591,0.664237 -4.161755,1.636129 -6.113819,2.720669 -2.598034,1.443434 -4.942119,3.315676 -7.391422,5.006374 -2.478673,1.710946 -5.15965,3.167184 -7.391437,5.198935 -2.36795,2.155751 -4.427391,4.673068 -6.254281,7.317079 -2.494235,3.609559 -4.609169,7.511664 -6.347194,11.553129 -2.287645,5.319454 -4.377957,10.831693 -5.306669,16.559488 -0.872844,5.383561 -0.106298,10.911651 -0.189512,16.367043 -0.05091,3.337638 -0.485712,6.688048 -0.189543,10.012708 0.18015,2.02166 0.88165,3.96336 1.189521,5.96908 0.342731,2.23322 0.545324,4.48711 0.730068,6.73962 0.126133,1.53738 0.646771,3.12962 0.258108,4.62124 -0.327385,1.25612 -0.833825,3.00156 -2.084762,3.27324 -5.081286,1.10316 -9.308778,-4.98475 -13.077145,-8.61909 -6.178459,-5.95905 -11.836201,-12.98567 -15.004815,-21.02009 -1.477193,-3.745415 -1.349499,-7.968294 -1.600362,-11.995307 -0.276035,-4.43213 1.239097,-9.032293 0.109178,-13.322469 -1.530104,-5.809059 -4.079927,-12.205213 -8.996315,-15.553925 -6.427687,-4.378101 -15.569164,-1.076653 -22.983094,-3.330583 -2.27417,-0.691446 -4.07313,-3.211888 -6.44363,-3.080855 -1.33082,0.07351 -2.96025,0.844027 -3.41145,2.118111 -0.65538,1.852789 0.76518,3.984458 1.89527,5.584144 2.04815,2.899505 5.07583,5.22482 8.33899,6.546659 4.65945,1.887413 11.23496,-1.859031 14.972372,1.54036 5.915386,5.380707 3.538701,15.731908 4.995786,23.661735 0.903161,4.9152 0.491983,10.17158 2.320403,14.81376 2.199037,5.58315 5.915676,10.5777 10.077212,14.85438 2.283715,2.3467 5.390245,3.69212 7.95997,5.71065 5.953675,4.6763 10.281713,11.90581 17.246677,14.80083 6.215436,2.58389 13.375951,1.70612 20.08952,1.54056 6.491643,-0.16 12.86008,-1.90002 19.331402,-2.44556 3.024627,-0.25457 6.0943746,0.0577 9.0971655,-0.38515 3.0961787,-0.45536 5.99289737,-1.92331 9.0971016,-2.32062 1.7545724,-0.22421 3.6766897,0.66262 5.306723,-0.0253 0.1659061,-0.0701 0.2014263,-0.41521 0.3790006,-0.3851 3.2103253,0.54539 1.5426405,6.91013 4.1695293,8.83443 0.771528,0.565 1.89745,0.24098 2.842832,0.385 1.140163,0.17384 2.258849,0.55378 3.411394,0.57763 1.018574,0.0213 2.057523,-0.0844 3.032423,-0.38472 1.21679,-0.37443 2.62282,-0.72008 3.411466,-1.73319 0.684293,-0.87912 -0.250991,-2.82007 0.758105,-3.27351 1.784489,-0.80146 3.29574,2.17715 5.117025,2.88835 1.573511,0.61438 3.262722,1.42296 4.927666,1.15534 1.091533,-0.17525 2.272028,-0.77171 2.842835,-1.7329 0.588363,-0.99107 0.319353,-2.31627 0.189454,-3.46594 -0.179768,-1.59423 -0.636794,-3.17808 -1.326538,-4.62138 -0.474743,-0.99346 -1.334642,-1.74961 -1.895292,-2.69563 -0.655776,-1.10659 -1.270226,-2.25222 -1.705592,-3.46585 -1.112704,-3.10099 -1.923983,-6.34655 -2.274363,-9.62791 -0.38167,-3.57387 -0.09835,-7.20093 0.20575,-10.78293 0.07135,-0.84096 0.279221,-1.66492 0.379026,-2.50316 0.517606,-4.34989 1.114859,-8.71208 1.137173,-13.093591 0.01468,-2.639432 -1.180659,-5.320782 -0.60485,-7.89457 0.615046,-2.748178 2.503147,-5.064076 4.169648,-7.316986 1.366671,-1.847781 3.616207,-2.986397 4.721941,-5.006438 1.236152,-2.258483 1.36969,-4.981217 1.895247,-7.509518 0.555679,-2.674027 1.104655,-5.36369 1.326649,-8.087279 0.166649,-2.046855 0.256383,-4.124397 0,-6.161655 -0.413898,-3.289085 -2.009031,-6.344131 -2.463702,-9.627646 -0.281965,-2.034515 0.208472,-4.140352 -0.153435,-6.161705 -0.275504,-1.537732 -1.259855,-2.88757 -1.516243,-4.428713 -0.378913,-2.278335 0.522468,-4.683082 0,-6.931897 -0.454512,-1.955511 -2.251145,-3.424175 -2.653444,-5.391469 -0.476138,-2.328515 0.366611,-4.74613 0.379055,-7.124385 0.01633,-2.955394 -0.03944,-5.9226425 -0.379055,-8.8576074 C 37.824381,3.1252546 38.006431,0.86887109 36.920674,-0.83117936 36.500955,-1.4883677 35.796552,-2.166169 35.025519,-2.1790281 33.291067,-2.2079703 31.957306,-0.46799983 30.666398,0.70926412 29.329962,1.9279607 28.794106,4.0054846 27.254989,4.9454351 c -1.932634,1.1802604 -4.389356,1.1221192 -6.633353,1.3478647 -1.885989,0.1897348 -3.790626,0.024598 -5.685678,0 C 12.47158,6.2615162 9.9512399,6.6409101 7.5446139,6.1011358 5.5276162,5.6488309 3.7373006,4.4705755 1.8588078,3.5980125 0.1371561,2.7982831 -1.666278,2.135554 -3.2582817,1.0948318 -4.5031297,0.28111047 -5.3079405,-1.2040713 -6.6697125,-1.7934448 -7.1960702,-2.0212262 -7.9916795,-2.4170909 -8.375391,-1.9859986 Z"
       id="path847-0"
       sodipodi:nodetypes="aaaaaaaaaaaaaaaaaaaaaaaaaaaaaaaaaaaaaaaaaaaaaaaaaaaaaaaaaaaaaaaaaaaaaaaaaaaaaaaaaaa" />
  </g>
</svg>
